<svg width="147" height="44" viewBox="0 0 147 44" fill="none" xmlns="http://www.w3.org/2000/svg">
<rect width="147" height="44" rx="15" fill="black"/>
<g filter="url(#filter0_d_204_25)">
<path d="M35.536 31.312C30.832 31.312 28.48 28.36 28.48 22.456C28.48 19.656 29.048 17.528 30.184 16.072C31.336 14.616 33.168 13.888 35.68 13.888C37.696 13.888 39.488 14.448 41.056 15.568C41.056 16.464 40.944 17.6 40.72 18.976C40.496 19.024 40.032 19.048 39.328 19.048L38.608 16.072C37.472 15.864 36.56 15.76 35.872 15.76C34.608 15.76 33.496 15.936 32.536 16.288L32.08 16.456C31.984 16.616 31.864 16.856 31.72 17.176C31.576 17.48 31.384 18.128 31.144 19.12C30.92 20.112 30.808 21.128 30.808 22.168C30.808 24.424 31.176 26.216 31.912 27.544C32.664 28.872 33.856 29.536 35.488 29.536C36.656 29.536 37.536 29.416 38.128 29.176C38.288 29.096 38.52 28.976 38.824 28.816L39.328 25.936L40.72 26.008C40.96 27.656 41.08 28.992 41.08 30.016C40.744 30.272 40.016 30.552 38.896 30.856C37.792 31.16 36.672 31.312 35.536 31.312ZM49.7877 29.848C51.1317 29.848 52.0357 29.432 52.4997 28.6C52.9797 27.752 53.2197 26.552 53.2197 25C53.2197 22.536 52.6757 20.992 51.5877 20.368C51.1397 20.112 50.5077 19.984 49.6917 19.984C48.8917 19.984 48.1317 20.152 47.4117 20.488C46.7717 21.72 46.4517 23.152 46.4517 24.784C46.4517 26.352 46.6597 27.56 47.0757 28.408C47.5557 29.368 48.4597 29.848 49.7877 29.848ZM44.2437 25C44.2437 22.968 44.7077 21.384 45.6357 20.248C46.5637 19.096 47.9957 18.52 49.9317 18.52C51.8677 18.52 53.2677 19.048 54.1317 20.104C54.9957 21.144 55.4277 22.688 55.4277 24.736C55.4277 26.784 54.9637 28.392 54.0357 29.56C53.1237 30.728 51.7317 31.312 49.8597 31.312C47.9877 31.312 46.5797 30.768 45.6357 29.68C44.7077 28.592 44.2437 27.032 44.2437 25ZM65.8458 18.52C67.3818 18.52 68.4938 18.904 69.1818 19.672C69.8698 20.424 70.2138 21.576 70.2138 23.128C70.2138 23.576 70.1498 25.656 70.0217 29.368L72.0377 29.56C72.0377 30.008 71.9018 30.488 71.6298 31H66.1098L66.0377 30.16C66.7737 29.904 67.4937 29.712 68.1977 29.584C68.1018 25.392 68.0138 23.064 67.9338 22.6C67.8698 22.12 67.7578 21.704 67.5978 21.352C67.4378 21 67.1978 20.752 66.8778 20.608C66.5578 20.464 66.1338 20.392 65.6058 20.392C64.5498 20.392 63.5257 20.648 62.5337 21.16C62.4377 24.808 62.3737 27.544 62.3417 29.368L64.3577 29.56C64.3577 30.008 64.2218 30.488 63.9498 31H58.4297L58.3577 30.16C59.0937 29.904 59.8137 29.712 60.5177 29.584C60.4217 25.52 60.3417 22.512 60.2777 20.56C59.3977 20.512 58.6937 20.416 58.1657 20.272L58.2617 19.024C59.1257 18.784 60.3817 18.664 62.0297 18.664C62.2217 18.952 62.3657 19.368 62.4618 19.912C63.1497 19.544 63.8377 19.224 64.5257 18.952C65.2297 18.664 65.6697 18.52 65.8458 18.52ZM76.1228 29.512L75.9308 20.464H74.0828L74.0108 19.624C74.1708 19.512 74.6348 19.304 75.4028 19L77.3708 15.928C77.6908 15.96 77.9388 16.04 78.1148 16.168L78.0908 18.808C79.2908 18.808 80.2748 18.888 81.0428 19.048C81.0428 19.48 80.9068 19.952 80.6348 20.464H78.0428C78.0108 22.384 77.9788 25.296 77.9468 29.2C78.8428 29.248 79.7388 29.408 80.6348 29.68L80.6108 30.52C80.3868 30.664 79.8108 30.832 78.8828 31.024C77.9708 31.216 77.2188 31.312 76.6268 31.312C76.5468 31.184 76.4428 30.912 76.3148 30.496C76.1868 30.064 76.1228 29.736 76.1228 29.512ZM93.5386 23.152L93.4186 29.344C94.1066 29.392 94.7946 29.504 95.4826 29.68L95.4346 30.52C95.1786 30.648 94.7146 30.792 94.0426 30.952C93.3866 31.096 92.7386 31.168 92.0986 31.168C91.8106 30.592 91.6506 30.04 91.6186 29.512C89.7946 30.712 88.5146 31.312 87.7786 31.312C86.6426 31.312 85.7306 31.008 85.0426 30.4C84.3546 29.792 84.0106 28.944 84.0106 27.856C84.0106 25.344 85.5466 24.048 88.6186 23.968C90.4106 23.92 91.3146 23.896 91.3306 23.896L91.3066 23.08C91.2746 21.976 91.0666 21.184 90.6826 20.704C90.2986 20.208 89.6106 19.96 88.6186 19.96C88.2026 19.96 87.7546 20.056 87.2746 20.248L86.6986 22.648C86.6186 22.664 86.4826 22.672 86.2906 22.672L85.3066 22.6C85.0506 21.912 84.9146 20.96 84.8986 19.744C85.2026 19.584 85.8986 19.344 86.9866 19.024C88.0746 18.688 88.7706 18.52 89.0746 18.52C90.7066 18.52 91.8586 18.88 92.5306 19.6C93.2026 20.32 93.5386 21.504 93.5386 23.152ZM88.3066 29.68C88.7706 29.68 89.8426 29.16 91.5226 28.12L91.4026 25.12C90.3146 25.216 89.4026 25.304 88.6666 25.384C87.9306 25.464 87.3386 25.68 86.8906 26.032C86.4426 26.368 86.2186 26.904 86.2186 27.64C86.2186 29 86.9146 29.68 88.3066 29.68ZM99.8041 29.512L99.6121 20.464H97.7641L97.6921 19.624C97.8521 19.512 98.3161 19.304 99.0841 19L101.052 15.928C101.372 15.96 101.62 16.04 101.796 16.168L101.772 18.808C102.972 18.808 103.956 18.888 104.724 19.048C104.724 19.48 104.588 19.952 104.316 20.464H101.724C101.692 22.384 101.66 25.296 101.628 29.2C102.524 29.248 103.42 29.408 104.316 29.68L104.292 30.52C104.068 30.664 103.492 30.832 102.564 31.024C101.652 31.216 100.9 31.312 100.308 31.312C100.228 31.184 100.124 30.912 99.9961 30.496C99.8681 30.064 99.8041 29.736 99.8041 29.512ZM113.116 29.848C114.46 29.848 115.364 29.432 115.828 28.6C116.308 27.752 116.548 26.552 116.548 25C116.548 22.536 116.004 20.992 114.916 20.368C114.468 20.112 113.836 19.984 113.02 19.984C112.22 19.984 111.46 20.152 110.74 20.488C110.1 21.72 109.78 23.152 109.78 24.784C109.78 26.352 109.988 27.56 110.404 28.408C110.884 29.368 111.788 29.848 113.116 29.848ZM107.572 25C107.572 22.968 108.036 21.384 108.964 20.248C109.892 19.096 111.324 18.52 113.26 18.52C115.196 18.52 116.596 19.048 117.46 20.104C118.324 21.144 118.756 22.688 118.756 24.736C118.756 26.784 118.292 28.392 117.364 29.56C116.452 30.728 115.06 31.312 113.188 31.312C111.316 31.312 109.908 30.768 108.964 29.68C108.036 28.592 107.572 27.032 107.572 25Z" fill="white"/>
<path d="M28 33.4H119.62V34.6H28V33.4Z" fill="white"/>
</g>
<defs>
<filter id="filter0_d_204_25" x="24" y="13.888" width="99.6198" height="28.712" filterUnits="userSpaceOnUse" color-interpolation-filters="sRGB">
<feFlood flood-opacity="0" result="BackgroundImageFix"/>
<feColorMatrix in="SourceAlpha" type="matrix" values="0 0 0 0 0 0 0 0 0 0 0 0 0 0 0 0 0 0 127 0" result="hardAlpha"/>
<feOffset dy="4"/>
<feGaussianBlur stdDeviation="2"/>
<feComposite in2="hardAlpha" operator="out"/>
<feColorMatrix type="matrix" values="0 0 0 0 0 0 0 0 0 0 0 0 0 0 0 0 0 0 0.25 0"/>
<feBlend mode="normal" in2="BackgroundImageFix" result="effect1_dropShadow_204_25"/>
<feBlend mode="normal" in="SourceGraphic" in2="effect1_dropShadow_204_25" result="shape"/>
</filter>
</defs>
</svg>
