<svg width="53" height="53" viewBox="0 0 53 53" fill="none" xmlns="http://www.w3.org/2000/svg">
<path fill-rule="evenodd" clip-rule="evenodd" d="M26.4982 1.45557e-05C20.2072 -0.0048848 14.12 2.28884 9.32719 6.47028C4.53434 10.6517 1.34895 16.4477 0.34167 22.8198C-0.665613 29.1919 0.571026 35.7239 3.83005 41.2456C7.08908 46.7672 12.1575 50.9178 18.1275 52.9537C19.4532 53.201 19.9353 52.3616 19.9353 51.642C19.9353 50.9974 19.9134 49.2885 19.8988 47.0212C12.536 48.6627 10.9802 43.3786 10.9802 43.3786C9.77502 40.2381 8.04026 39.4061 8.04026 39.4061C5.63715 37.7197 8.22286 37.7534 8.22286 37.7534C10.8816 37.9445 12.2767 40.5529 12.2767 40.5529C14.6397 44.7052 18.4744 43.506 19.9828 42.8089C20.2238 41.055 20.9104 39.8558 21.6627 39.1775C15.7828 38.4917 9.60337 36.1607 9.60337 25.7498C9.56514 23.0505 10.5422 20.4398 12.3315 18.4607C12.0576 17.7712 11.1482 15.0129 12.5872 11.2653C12.5872 11.2653 14.815 10.5383 19.8695 14.0535C22.0302 13.4506 24.259 13.1431 26.4982 13.1391C28.7373 13.1434 30.9661 13.4509 33.1268 14.0535C38.1814 10.5383 40.4019 11.2691 40.4019 11.2691C41.8481 15.0092 40.9387 17.7712 40.6648 18.4607C42.3631 20.3608 43.3857 22.7817 43.3857 25.7498C43.3857 36.1869 37.1953 38.4842 31.2971 39.155C32.2466 39.9945 33.0939 41.6547 33.0939 44.188C33.0939 47.8232 33.0611 50.7501 33.0611 51.642C33.0611 52.3691 33.5395 53.216 34.8835 52.9499C40.8522 50.9115 45.9187 46.759 49.1754 41.2364C52.4321 35.7137 53.6663 29.1816 52.6568 22.8102C51.6474 16.4388 48.4603 10.6444 43.6664 6.46471C38.8726 2.28507 32.7888 -0.00666398 26.4982 1.45557e-05Z" fill="black"/>
</svg>
