<?xml version="1.0" standalone="no"?>
<!DOCTYPE svg PUBLIC "-//W3C//DTD SVG 20010904//EN"
 "http://www.w3.org/TR/2001/REC-SVG-20010904/DTD/svg10.dtd">
<svg version="1.0" xmlns="http://www.w3.org/2000/svg"
 width="131.000000pt" height="85.000000pt" viewBox="0 0 131.000000 85.000000"
 preserveAspectRatio="xMidYMid meet">

<g transform="translate(0.000000,85.000000) scale(0.100000,-0.100000)"
fill="#000000" stroke="none">
<path d="M250 621 c22 -6 25 -13 28 -64 l3 -57 44 0 45 0 0 55 0 55 35 0 c46
0 75 -29 75 -75 0 -35 0 -35 45 -35 44 0 45 1 45 33 0 35 -22 68 -57 86 -13 7
-74 11 -155 10 -73 -1 -122 -4 -108 -8z"/>
<path d="M710 623 c27 -10 40 -36 40 -80 0 -24 5 -43 10 -43 6 0 10 14 10 30
l0 30 28 -30 c25 -29 32 -31 80 -28 l52 3 -50 63 -51 62 -67 -1 c-37 0 -60 -3
-52 -6z"/>
<path d="M980 617 c21 -11 25 -21 28 -65 2 -28 7 -52 12 -52 5 0 10 24 12 52
3 44 7 54 28 65 23 12 19 13 -40 13 -59 0 -63 -1 -40 -13z"/>
<path d="M196 453 c-6 -14 -5 -15 5 -6 7 7 10 15 7 18 -3 3 -9 -2 -12 -12z"/>
<path d="M692 450 c0 -14 2 -19 5 -12 2 6 2 18 0 25 -3 6 -5 1 -5 -13z"/>
<path d="M948 463 c7 -3 16 -2 19 1 4 3 -2 6 -13 5 -11 0 -14 -3 -6 -6z"/>
<path d="M278 343 c-3 -50 -6 -59 -28 -70 -22 -11 -12 -13 75 -12 56 1 89 4
75 8 -22 6 -26 13 -30 66 l-5 60 -42 3 -42 3 -3 -58z"/>
<path d="M420 394 c0 -3 21 -34 46 -70 l46 -64 60 0 61 0 -24 19 c-14 10 -40
42 -59 70 -34 49 -37 51 -82 51 -27 0 -48 -3 -48 -6z"/>
<path d="M750 353 c0 -56 -7 -68 -40 -82 -20 -8 -9 -10 50 -9 41 0 66 3 55 5
-36 9 -45 24 -45 79 0 30 -4 54 -10 54 -5 0 -10 -21 -10 -47z"/>
<path d="M910 394 c0 -6 111 -144 116 -144 2 0 4 34 4 75 l0 75 -60 0 c-33 0
-60 -2 -60 -6z"/>
</g>
</svg>
