<svg width="155" height="52" viewBox="0 0 155 52" fill="none" xmlns="http://www.w3.org/2000/svg">
<g filter="url(#filter0_d_204_24)">
<rect x="4" width="147" height="44" rx="15" fill="black"/>
<path d="M35.32 13.2C37.352 13.2 38.856 13.536 39.832 14.208C40.824 14.864 41.32 16.032 41.32 17.712C41.32 19.392 40.832 20.728 39.856 21.72C38.88 22.696 37.304 23.184 35.128 23.184H33.112L33.04 28.392L34.912 28.56C34.912 29.008 34.776 29.488 34.504 30H29.104L29.032 29.184C29.704 28.928 30.392 28.736 31.096 28.608C31 22.368 30.92 17.728 30.856 14.688C30.424 14.608 29.72 14.416 28.744 14.112L28.864 13.2H35.32ZM34.888 21.624C36.264 21.608 37.312 21.264 38.032 20.592C38.752 19.904 39.112 19 39.112 17.88C39.112 16.76 38.76 15.984 38.056 15.552C37.352 15.104 36.224 14.88 34.672 14.88C34.384 14.88 33.896 14.888 33.208 14.904C33.208 14.92 33.184 17.168 33.136 21.648L34.888 21.624ZM51.2367 19.536C51.1567 19.456 50.9807 19.416 50.7087 19.416C50.4367 19.416 50.0287 19.512 49.4847 19.704C48.9567 19.896 48.4767 20.12 48.0447 20.376C47.9487 23.928 47.8847 26.592 47.8527 28.368L49.8687 28.56C49.8687 29.008 49.7327 29.488 49.4607 30H43.9407L43.8687 29.16C44.6047 28.904 45.3247 28.712 46.0287 28.584C45.9327 24.52 45.8527 21.512 45.7887 19.56C44.9087 19.512 44.2047 19.416 43.6767 19.272L43.7727 18.024C44.6207 17.784 45.8767 17.664 47.5407 17.664C47.7967 18.064 47.9567 18.576 48.0207 19.2C49.8607 18.08 50.9567 17.52 51.3087 17.52C51.6607 17.52 52.0687 17.592 52.5327 17.736C52.9967 17.864 53.3407 18.008 53.5647 18.168C53.5647 19.768 53.4127 21.072 53.1087 22.08C52.8847 22.144 52.6207 22.176 52.3167 22.176C52.0287 22.176 51.8287 22.168 51.7167 22.152L51.2367 19.536ZM61.3939 28.848C62.7379 28.848 63.6419 28.432 64.1059 27.6C64.5859 26.752 64.8259 25.552 64.8259 24C64.8259 21.536 64.2819 19.992 63.1939 19.368C62.7459 19.112 62.1139 18.984 61.2979 18.984C60.4979 18.984 59.7379 19.152 59.0179 19.488C58.3779 20.72 58.0579 22.152 58.0579 23.784C58.0579 25.352 58.2659 26.56 58.6819 27.408C59.1619 28.368 60.0659 28.848 61.3939 28.848ZM55.8499 24C55.8499 21.968 56.3139 20.384 57.2419 19.248C58.1699 18.096 59.6019 17.52 61.5379 17.52C63.4739 17.52 64.8739 18.048 65.7379 19.104C66.6019 20.144 67.0339 21.688 67.0339 23.736C67.0339 25.784 66.5699 27.392 65.6419 28.56C64.7299 29.728 63.3379 30.312 61.4659 30.312C59.5939 30.312 58.1859 29.768 57.2419 28.68C56.3139 27.592 55.8499 26.032 55.8499 24ZM70.156 35.784C69.644 35.784 69.02 35.68 68.284 35.472C67.532 35.264 67.02 35.072 66.748 34.896C66.828 33.44 66.98 32.376 67.204 31.704C67.556 31.64 67.86 31.608 68.116 31.608C68.356 31.608 68.516 31.616 68.596 31.632L69.196 34.248C69.436 34.328 69.788 34.368 70.252 34.368C71.644 34.368 72.34 33.224 72.34 30.936C72.34 29.592 72.308 27.584 72.244 24.912C72.196 22.224 72.164 20.44 72.148 19.56C71.268 19.512 70.564 19.416 70.036 19.272L70.132 18.024C70.948 17.784 72.132 17.664 73.684 17.664C74.18 17.664 74.532 17.68 74.74 17.712C74.74 18.096 74.692 18.52 74.596 18.984C74.5 19.448 74.444 19.672 74.428 19.656C74.38 22.024 74.324 25.632 74.26 30.48C74.228 32.304 73.924 33.64 73.348 34.488C72.788 35.352 71.724 35.784 70.156 35.784ZM74.5 15.528C74.084 15.624 73.676 15.672 73.276 15.672C72.892 15.672 72.508 15.648 72.124 15.6C72.028 15.152 71.98 14.704 71.98 14.256C71.98 13.792 71.996 13.448 72.028 13.224C72.38 13.144 72.748 13.104 73.132 13.104C73.532 13.104 73.956 13.12 74.404 13.152C74.5 13.568 74.548 13.976 74.548 14.376C74.548 14.76 74.532 15.144 74.5 15.528ZM84.1037 28.656C84.8077 28.656 85.9117 28.32 87.4158 27.648C87.7197 28.064 87.8797 28.432 87.8957 28.752C87.0797 29.232 86.2797 29.608 85.4957 29.88C84.7117 30.152 84.1517 30.288 83.8157 30.288C81.9597 30.288 80.5437 29.736 79.5677 28.632C78.5917 27.512 78.1037 25.952 78.1037 23.952C78.1037 21.952 78.5757 20.384 79.5197 19.248C80.4797 18.096 81.9117 17.52 83.8157 17.52C85.2877 17.52 86.4077 18.048 87.1757 19.104C87.9597 20.16 88.3517 21.576 88.3517 23.352C88.2237 23.576 88.1197 23.728 88.0397 23.808L80.3117 23.688C80.3277 25.304 80.6077 26.536 81.1517 27.384C81.7117 28.232 82.6957 28.656 84.1037 28.656ZM86.1677 22.32C86.1677 21.264 85.9757 20.448 85.5917 19.872C85.2077 19.28 84.5677 18.984 83.6717 18.984C82.7757 18.984 81.9757 19.152 81.2717 19.488C80.7917 20.448 80.4877 21.432 80.3597 22.44C81.6237 22.424 83.5597 22.384 86.1677 22.32ZM93.265 28.512L93.073 19.464H91.225L91.153 18.624C91.313 18.512 91.777 18.304 92.545 18L94.513 14.928C94.833 14.96 95.081 15.04 95.257 15.168L95.233 17.808C96.433 17.808 97.417 17.888 98.185 18.048C98.185 18.48 98.049 18.952 97.777 19.464H95.185C95.153 21.384 95.121 24.296 95.089 28.2C95.985 28.248 96.881 28.408 97.777 28.68L97.753 29.52C97.529 29.664 96.953 29.832 96.025 30.024C95.113 30.216 94.361 30.312 93.769 30.312C93.689 30.184 93.585 29.912 93.457 29.496C93.329 29.064 93.265 28.736 93.265 28.512ZM106.577 28.848C107.921 28.848 108.825 28.432 109.289 27.6C109.769 26.752 110.009 25.552 110.009 24C110.009 21.536 109.465 19.992 108.377 19.368C107.929 19.112 107.297 18.984 106.481 18.984C105.681 18.984 104.921 19.152 104.201 19.488C103.561 20.72 103.241 22.152 103.241 23.784C103.241 25.352 103.449 26.56 103.865 27.408C104.345 28.368 105.249 28.848 106.577 28.848ZM101.033 24C101.033 21.968 101.497 20.384 102.425 19.248C103.353 18.096 104.785 17.52 106.721 17.52C108.657 17.52 110.057 18.048 110.921 19.104C111.785 20.144 112.217 21.688 112.217 23.736C112.217 25.784 111.753 27.392 110.825 28.56C109.913 29.728 108.521 30.312 106.649 30.312C104.777 30.312 103.369 29.768 102.425 28.68C101.497 27.592 101.033 26.032 101.033 24ZM117.139 28.464C117.699 28.704 118.379 28.824 119.179 28.824C119.995 28.824 120.635 28.672 121.099 28.368C121.563 28.064 121.795 27.648 121.795 27.12C121.795 26.592 121.579 26.152 121.147 25.8C120.715 25.448 120.187 25.136 119.563 24.864C118.939 24.592 118.315 24.304 117.691 24C117.067 23.696 116.539 23.296 116.107 22.8C115.675 22.304 115.459 21.728 115.459 21.072C115.459 19.968 115.827 19.104 116.563 18.48C117.299 17.84 118.315 17.52 119.611 17.52C120.923 17.52 122.155 17.816 123.307 18.408C123.323 18.568 123.331 19 123.331 19.704C123.331 20.392 123.259 20.984 123.115 21.48C122.731 21.608 122.275 21.672 121.747 21.672L120.955 19.224C120.603 19.048 120.123 18.96 119.515 18.96C118.923 18.96 118.451 19.12 118.099 19.44C117.747 19.744 117.571 20.136 117.571 20.616C117.571 21.08 117.787 21.488 118.219 21.84C118.667 22.192 119.203 22.512 119.827 22.8C120.451 23.072 121.075 23.368 121.699 23.688C122.323 23.992 122.851 24.4 123.283 24.912C123.731 25.408 123.955 25.984 123.955 26.64C123.955 27.792 123.507 28.696 122.611 29.352C121.731 29.992 120.643 30.312 119.347 30.312C118.643 30.312 117.891 30.2 117.091 29.976C116.291 29.736 115.619 29.432 115.075 29.064C115.075 27.992 115.171 27.04 115.363 26.208C115.731 26.144 116.227 26.112 116.851 26.112L117.139 28.464Z" fill="white"/>
<path d="M28 32.4H125.131V33.6H28V32.4Z" fill="white"/>
</g>
<defs>
<filter id="filter0_d_204_24" x="0" y="0" width="155" height="52" filterUnits="userSpaceOnUse" color-interpolation-filters="sRGB">
<feFlood flood-opacity="0" result="BackgroundImageFix"/>
<feColorMatrix in="SourceAlpha" type="matrix" values="0 0 0 0 0 0 0 0 0 0 0 0 0 0 0 0 0 0 127 0" result="hardAlpha"/>
<feOffset dy="4"/>
<feGaussianBlur stdDeviation="2"/>
<feComposite in2="hardAlpha" operator="out"/>
<feColorMatrix type="matrix" values="0 0 0 0 0 0 0 0 0 0 0 0 0 0 0 0 0 0 0.25 0"/>
<feBlend mode="normal" in2="BackgroundImageFix" result="effect1_dropShadow_204_24"/>
<feBlend mode="normal" in="SourceGraphic" in2="effect1_dropShadow_204_24" result="shape"/>
</filter>
</defs>
</svg>
